# xmcd CD database file
#
# Track frame offsets:
#	182
#	13620
#	27417
#	41967
#	56067
#	72697
#	82862
#	101460
#	113207
#	126840
#	144555
#	154217
#
# Disc length: 2182 seconds
#
# Revision: 0
# Processed by: cddbd v1.5.2PL0 Copyright (c) Steve Scherf et al.
# Submitted via: ACXtractor (MTCDDB.DLL V2003.12.21)
#
DISCID=a808840c
DTITLE=Stan Coster - Songs from a Wanderer's Pen
DYEAR=1965
DGENRE=Country
TTITLE0=It's the only Home he Knows
TTITLE1=A Blind Boys christmas Prayer
TTITLE2=Dusty's Den
TTITLE3=Would I do the Same thing Again
TTITLE4=Your country's Been Sold
TTITLE5=Leave the Formwork to the Finn
TTITLE6=God will Prevail
TTITLE7=Dorothy
TTITLE8=The old Day's to which I Belong
TTITLE9=Out of the Calico Sack
TTITLE10=Flowers of the West
TTITLE11=Come Again Your Welcome Here
EXTD=ID3G:   2 YEAR: 1965
EXTT0=
EXTT1=
EXTT2=
EXTT3=
EXTT4=
EXTT5=
EXTT6=
EXTT7=
EXTT8=
EXTT9=
EXTT10=
EXTT11=
PLAYORDER=
